<svg xmlns="http://www.w3.org/2000/svg" width="45.117" height="51.719" viewBox="0 0 45.117 51.719">
  <g id="Group_6" data-name="Group 6" transform="translate(0 0)">
    <path id="Path_610" data-name="Path 610" d="M263.528,406.013l5.276-3.046,5.281,3.049-5.281,3.044Z" transform="translate(-246.245 -376.539)" fill="#eb3e19"/>
    <path id="Path_611" data-name="Path 611" d="M21.9,0,0,12.646V37.937l8.169-4.716V17.362L21.9,9.432Z" fill="#209787"/>
    <path id="Path_612" data-name="Path 612" d="M31.9,531.743l-13.728-7.927L10,528.535l21.9,12.646,21.9-12.646-8.175-4.72Z" transform="translate(-9.344 -489.462)" fill="#eb3e19"/>
    <path id="Path_613" data-name="Path 613" d="M353.971,0V9.432l13.734,7.93V33.221l8.169,4.716V12.646Z" transform="translate(-330.757)" fill="#fc9524"/>
    <path id="Path_614" data-name="Path 614" d="M253.53,295.686l5.275-3.046v6.1l-5.275,3.046Z" transform="translate(-236.903 -273.448)" fill="#209787"/>
    <path id="Path_615" data-name="Path 615" d="M353.971,298.754v-6.1l5.275,3.052V301.8Z" transform="translate(-330.756 -273.462)" fill="#fc9524"/>
  </g>
</svg>
